<svg xmlns="http://www.w3.org/2000/svg" viewBox="0 0 100 100">
  <defs>
    <linearGradient id="g" x1="20" y1="15" x2="80" y2="85" gradientUnits="userSpaceOnUse">
      <stop stop-color="#3b82f6"/>
      <stop offset="1" stop-color="#2563eb"/>
    </linearGradient>
    <filter id="s" x="-20%" y="-20%" width="140%" height="140%">
      <feDropShadow dx="0" dy="8" stdDeviation="6" flood-color="#0f172a" flood-opacity="0.22"/>
    </filter>
  </defs>
  <rect x="10" y="10" width="80" height="80" rx="22" fill="url(#g)" filter="url(#s)"/>
  <path d="M34 22 H60 L72 34 V78 Q72 82 68 82 H34 Q30 82 30 78 V26 Q30 22 34 22 Z M58 22 V36 H72 M50 45 Q42 45 42 52 Q42 59 50 59 Q58 59 58 66 Q58 73 50 73 Q42 73 42 66 M50 41 V77" fill="none" stroke="white" stroke-width="6" stroke-linecap="round" stroke-linejoin="round" opacity="0.96"/>
  <path d="M34 22 H60 L72 34 V78 Q72 82 68 82 H34 Q30 82 30 78 V26 Q30 22 34 22 Z M58 22 V36 H72 M50 45 Q42 45 42 52 Q42 59 50 59 Q58 59 58 66 Q58 73 50 73 Q42 73 42 66 M50 41 V77" fill="none" stroke="#e0f2fe" stroke-width="2" stroke-linecap="round" stroke-linejoin="round" opacity="0.45"/>
</svg>
